<?xml version="1.0" standalone="yes"?><svg xmlns="http://www.w3.org/2000/svg" xmlns:xlink="http://www.w3.org/1999/xlink" version="1.1" x="0px" y="0px" viewBox="0 0 100 125" enable-background="new 0 0 100 100" xml:space="preserve" style="zoom: 1;"><path d="M17.3,29.2L32.5,50c0.3,0.5,0,1.2-0.5,1.2H21.9c0.2,11.1,7,20.5,16.7,24.6c3.6,1.5,7.7,2.3,11.9,2.1 c7.7-0.4,14.6-4.1,19.4-9.7l6.3,8.5C70.2,82.8,62.3,87,53.5,88c-5.2,0.6-10.2,0.1-14.9-1.3c-15.4-4.5-26.8-18.7-27-35.6H1.5 c-0.6,0-0.9-0.7-0.5-1.2l15.3-20.8C16.5,28.9,17,28.9,17.3,29.2z M98.5,48.8H88.4c-0.2-16.8-11.5-31.1-27-35.6 c-4.7-1.4-9.7-1.9-14.9-1.3c-8.8,1-16.8,5.2-22.7,11.3l6.3,8.5c4.7-5.6,11.7-9.4,19.4-9.7c4.2-0.2,8.3,0.6,11.9,2.1 c9.7,4.1,16.5,13.5,16.7,24.6H68c-0.6,0-0.9,0.7-0.5,1.2l15.3,20.8c0.3,0.3,0.8,0.3,1,0L99,50C99.4,49.5,99.1,48.8,98.5,48.8z"></path></svg>